
<svg xmlns="http://www.w3.org/2000/svg" x="0px" y="0px" width="24" height="24" viewBox="0 0 172 172" style=" fill:#000000;">
                                <g fill="none" fill-rule="nonzero" stroke="none" stroke-width="1" stroke-linecap="butt"
                                    stroke-linejoin="miter" stroke-miterlimit="10" stroke-dasharray=""
                                    stroke-dashoffset="0" font-family="none" font-weight="none" font-size="none"
                                    text-anchor="none" style="mix-blend-mode: normal">
                                    <path d="M0,172v-172h172v172z" fill="none"></path>
                                    <g fill="#000000">
                                        <path
                                            d="M96.75,35.83333l-2.86667,-18.63333c-0.71667,-1.43333 -2.15,-2.86667 -3.58333,-2.86667h-8.6c-1.43333,0 -3.58333,1.43333 -3.58333,2.86667l-2.86667,18.63333zM75.25,136.16667l2.86667,18.63333c0,1.43333 1.43333,2.86667 3.58333,2.86667h8.6c1.43333,0 3.58333,-1.43333 3.58333,-2.86667l2.86667,-18.63333zM136.16667,96.75l18.63333,-2.86667c1.43333,0 2.86667,-1.43333 2.86667,-3.58333v-8.6c0,-1.43333 -1.43333,-3.58333 -2.86667,-3.58333l-18.63333,-2.86667zM35.83333,75.25l-18.63333,2.86667c-1.43333,0.71667 -2.86667,2.15 -2.86667,3.58333v8.6c0,1.43333 1.43333,3.58333 2.86667,3.58333l18.63333,2.86667zM70.23333,37.26667l-12.18333,-14.33333c-0.71667,-1.43333 -2.86667,-2.15 -4.3,-0.71667l-7.16667,4.3c-1.43333,0.71667 -2.15,2.15 -1.43333,3.58333l6.45,17.91667zM101.76667,134.73333l12.18333,14.33333c1.43333,1.43333 2.86667,1.43333 4.3,0.71667l7.16667,-4.3c1.43333,-0.71667 2.15,-2.86667 1.43333,-4.3l-6.45,-17.91667zM134.73333,70.23333l14.33333,-12.18333c1.43333,-0.71667 2.15,-2.86667 0.71667,-4.3l-4.3,-7.16667c-0.71667,-1.43333 -2.86667,-2.15 -4.3,-1.43333l-17.91667,6.45zM37.26667,101.76667l-14.33333,12.18333c-1.43333,0.71667 -2.15,2.86667 -0.71667,4.3l4.3,7.16667c0.71667,1.43333 2.86667,2.15 4.3,1.43333l17.91667,-6.45zM48.01667,51.6l-17.91667,-6.45c-1.43333,-0.71667 -2.86667,0 -4.3,1.43333l-4.3,7.16667c-0.71667,1.43333 0,3.58333 1.43333,4.3l14.33333,12.18333zM123.98333,120.4l17.91667,6.45c1.43333,0.71667 3.58333,0 4.3,-1.43333l4.3,-7.16667c0.71667,-1.43333 0.71667,-3.58333 -0.71667,-4.3l-14.33333,-12.18333zM120.4,48.01667l6.45,-17.91667c0.71667,-1.43333 0,-3.58333 -1.43333,-4.3l-7.16667,-4.3c-1.43333,-0.71667 -3.58333,0 -4.3,1.43333l-12.18333,14.33333zM51.6,123.98333l-6.45,17.91667c-0.71667,1.43333 0,3.58333 1.43333,4.3l7.16667,4.3c1.43333,0.71667 3.58333,0 4.3,-1.43333l12.18333,-14.33333zM86,107.5c-12.18333,0 -21.5,-9.31667 -21.5,-21.5c0,-12.18333 9.31667,-21.5 21.5,-21.5c12.18333,0 21.5,9.31667 21.5,21.5c0,12.18333 -9.31667,21.5 -21.5,21.5zM86,78.83333c-4.3,0 -7.16667,2.86667 -7.16667,7.16667c0,4.3 2.86667,7.16667 7.16667,7.16667c4.3,0 7.16667,-2.86667 7.16667,-7.16667c0,-4.3 -2.86667,-7.16667 -7.16667,-7.16667z">
                                        </path>
                                        <path
                                            d="M86,35.83333c-27.95,0 -50.16667,22.21667 -50.16667,50.16667c0,27.95 22.21667,50.16667 50.16667,50.16667c27.95,0 50.16667,-22.21667 50.16667,-50.16667c0,-27.95 -22.21667,-50.16667 -50.16667,-50.16667zM86,100.33333c-7.88333,0 -14.33333,-6.45 -14.33333,-14.33333c0,-7.88333 6.45,-14.33333 14.33333,-14.33333c7.88333,0 14.33333,6.45 14.33333,14.33333c0,7.88333 -6.45,14.33333 -14.33333,14.33333z"
                                            opacity="0.3"></path>
                                        <path d="M78.83333,35.83333h14.33333v43h-14.33333z"></path>
                                        <path
                                            d="M38.74858,105.00588l37.24247,-21.49415l7.16472,12.41416l-37.24247,21.49415z">
                                        </path>
                                        <path
                                            d="M88.75349,95.55932l7.16515,-12.41391l37.24172,21.49545l-7.16515,12.41391z">
                                        </path>
                                        <path
                                            d="M86,143.33333c-31.53333,0 -57.33333,-25.8 -57.33333,-57.33333c0,-31.53333 25.8,-57.33333 57.33333,-57.33333c31.53333,0 57.33333,25.8 57.33333,57.33333c0,31.53333 -25.8,57.33333 -57.33333,57.33333zM86,43c-23.65,0 -43,19.35 -43,43c0,23.65 19.35,43 43,43c23.65,0 43,-19.35 43,-43c0,-23.65 -19.35,-43 -43,-43z">
                                        </path>
                                    </g>
                                </g>
                            </svg>